<svg width="118" height="118" viewBox="0 0 118 118" fill="none" xmlns="http://www.w3.org/2000/svg">
<g clip-path="url(#clip0)">
<path d="M60.7382 117.28L97.6132 80.4048C98.5736 79.4444 98.5736 77.8888 97.6132 76.9286C96.6529 75.9683 95.0972 75.9683 94.1371 76.9286L61.4584 109.607L61.4584 2.45841C61.4584 1.09956 60.3589 -1.65992e-06 59 -1.71932e-06C57.6412 -1.77872e-06 56.5416 1.09956 56.5416 2.45841L56.5416 109.607L23.8632 76.9286C22.9029 75.9683 21.3472 75.9683 20.3871 76.9286C19.907 77.4087 19.6669 78.0379 19.6669 78.6668C19.6669 79.2958 19.907 79.9247 20.3871 80.405L57.2621 117.28C58.2222 118.24 59.7779 118.24 60.7382 117.28Z" fill="black"/>
</g>
<defs>
<clipPath id="clip0">
<rect width="118" height="118" fill="white" transform="translate(118) rotate(90)"/>
</clipPath>
</defs>
</svg>
